<svg xmlns="http://www.w3.org/2000/svg" width="375" viewBox="0 0 375 375" height="375" version="1.0"><defs><clipPath id="a"><path d="M 85 49.929688 L 310 49.929688 L 310 225 L 85 225 Z M 85 49.929688"/></clipPath><clipPath id="b"><path d="M 77.144531 117 L 318.644531 117 L 318.644531 289.179688 L 77.144531 289.179688 Z M 77.144531 117"/></clipPath></defs><path fill="#A6D71C" d="M 251.660156 168.789062 L 251.660156 169.757812 C 251.660156 174.042969 249.210938 177.867188 245.523438 179.402344 C 233.996094 184.1875 217.019531 187.214844 198.085938 187.214844 C 179.152344 187.214844 162.175781 184.1875 150.652344 179.402344 C 146.960938 177.867188 144.515625 174.042969 144.515625 169.757812 L 144.515625 168.789062 C 140.824219 171.109375 138.425781 176.042969 138.425781 181.535156 L 138.425781 195.933594 C 138.425781 197.027344 138.523438 198.097656 138.707031 199.132812 C 139.121094 201.496094 142.421875 201.789062 143.28125 199.550781 C 143.640625 198.613281 143.808594 197.546875 143.761719 196.382812 C 143.691406 194.648438 143.46875 192.820312 144.21875 191.253906 C 146.105469 187.320312 148.5 191.074219 149.785156 193.273438 C 151.703125 196.558594 152.613281 202.058594 157.59375 201.277344 C 161.054688 200.730469 162.882812 197.183594 165.875 195.722656 C 169.710938 193.855469 173.894531 194.976562 177.914062 195.414062 C 182.726562 195.9375 187.796875 195.246094 192.496094 196.640625 C 194.832031 197.332031 196.964844 198.429688 198.363281 200.496094 C 200.464844 203.597656 198.886719 205.929688 199.535156 209.167969 C 200.109375 212.039062 202.625 212.453125 204.398438 210.515625 C 205.757812 209.035156 205.550781 205.882812 205.667969 204.027344 C 205.894531 200.324219 206.320312 197.609375 210.765625 197.46875 C 216.578125 197.289062 225.460938 197.085938 230.832031 199.625 C 233.300781 200.789062 234.785156 203.363281 237.550781 204.003906 C 241.53125 204.925781 243.144531 200.816406 243.554688 197.667969 C 243.992188 194.363281 244.453125 191.5625 247.691406 190.171875 C 247.707031 190.164062 247.722656 190.15625 247.738281 190.152344 C 250.011719 189.183594 252.574219 190.75 252.824219 193.207031 C 253.007812 194.988281 253.074219 197.050781 253.816406 198.703125 C 255.121094 201.597656 257.746094 200.554688 257.746094 197.34375 L 257.746094 181.535156 C 257.746094 176.042969 255.347656 171.109375 251.660156 168.789062"/><path fill="#ED1D24" d="M 200.761719 93.976562 L 195.414062 93.976562 C 194.078125 93.976562 192.992188 95.058594 192.992188 96.394531 L 192.992188 125.160156 C 194.683594 125.097656 196.382812 125.066406 198.085938 125.066406 C 199.792969 125.066406 201.492188 125.097656 203.179688 125.160156 L 203.179688 96.394531 C 203.179688 95.058594 202.097656 93.976562 200.761719 93.976562 Z M 198.085938 81.605469 C 200.675781 86.046875 201.21875 89.242188 200.929688 91.484375 C 203.824219 87.945312 206.765625 80.128906 198.085938 65.222656 C 189.40625 80.128906 192.351562 87.945312 195.242188 91.484375 C 194.957031 89.242188 195.5 86.046875 198.085938 81.605469"/><path fill="#FBBE0C" d="M 249.285156 160.695312 L 249.285156 148.339844 C 249.285156 143.316406 246.949219 138.835938 243.421875 137.039062 C 232.410156 131.429688 216.183594 127.878906 198.085938 127.878906 C 179.992188 127.878906 163.765625 131.429688 152.753906 137.039062 C 149.226562 138.835938 146.886719 143.316406 146.886719 148.339844 L 146.886719 162.613281 C 146.886719 162.617188 146.886719 162.621094 146.886719 162.625 C 146.890625 163.179688 147.582031 163.4375 147.953125 163.027344 C 148.257812 162.695312 148.558594 162.359375 148.851562 162.023438 C 151.332031 159.171875 154.578125 152.066406 158.847656 151.878906 C 161.78125 151.753906 163.796875 154.699219 164.546875 157.199219 C 165.351562 159.882812 167.507812 172.242188 172.492188 167.78125 C 174.96875 165.5625 174.15625 159.574219 176.894531 157.960938 C 180.039062 156.113281 184.960938 159.839844 187.683594 161.132812 C 193.167969 163.734375 201.582031 160.714844 204.648438 167.273438 C 205.664062 169.457031 204.582031 172.59375 207.265625 173.847656 C 209.6875 174.980469 211.789062 172.96875 212.242188 170.691406 C 213.011719 166.8125 211.234375 160.523438 216.753906 159.519531 C 221.992188 158.566406 222.164062 163.246094 224.597656 166.234375 C 229.710938 172.519531 233.410156 164.515625 236.292969 160.828125 C 241.390625 154.304688 244.25 158.855469 247.316406 163.238281 C 247.914062 164.097656 249.285156 163.691406 249.285156 162.644531 C 249.285156 162.632812 249.285156 162.621094 249.285156 162.613281 L 249.285156 160.695312"/><path fill="#FFF" d="M 152.835938 142.933594 C 152.835938 142.933594 153.179688 143.058594 153.824219 143.265625 C 154.472656 143.472656 155.425781 143.75 156.636719 144.097656 C 157.855469 144.433594 159.339844 144.820312 161.046875 145.222656 C 162.757812 145.621094 164.695312 146.039062 166.816406 146.441406 C 168.9375 146.847656 171.246094 147.222656 173.6875 147.574219 C 174.300781 147.660156 174.921875 147.746094 175.546875 147.832031 C 176.175781 147.90625 176.8125 147.980469 177.457031 148.054688 C 178.746094 148.214844 180.0625 148.332031 181.402344 148.472656 C 182.742188 148.585938 184.105469 148.707031 185.492188 148.792969 C 186.875 148.867188 188.273438 148.964844 189.6875 149.011719 C 190.390625 149.039062 191.101562 149.070312 191.8125 149.097656 C 192.523438 149.109375 193.234375 149.125 193.953125 149.132812 C 195.382812 149.175781 196.816406 149.144531 198.253906 149.136719 L 199.328125 149.132812 L 200.402344 149.101562 C 201.121094 149.085938 201.835938 149.066406 202.550781 149.046875 C 203.980469 149.007812 205.402344 148.910156 206.816406 148.84375 C 208.226562 148.742188 209.625 148.640625 211.007812 148.539062 C 212.386719 148.425781 213.75 148.277344 215.089844 148.148438 C 217.765625 147.832031 220.355469 147.535156 222.800781 147.152344 C 223.414062 147.0625 224.015625 146.972656 224.609375 146.886719 C 225.199219 146.785156 225.785156 146.683594 226.359375 146.582031 C 227.503906 146.382812 228.617188 146.21875 229.679688 146.011719 C 230.742188 145.800781 231.757812 145.601562 232.722656 145.414062 C 233.207031 145.320312 233.679688 145.238281 234.136719 145.140625 C 234.59375 145.039062 235.035156 144.941406 235.464844 144.84375 C 237.179688 144.453125 238.691406 144.171875 239.914062 143.851562 C 241.140625 143.546875 242.113281 143.332031 242.773438 143.171875 C 243.433594 143.019531 243.785156 142.933594 243.785156 142.933594 C 243.785156 142.933594 243.445312 143.054688 242.804688 143.28125 C 242.164062 143.503906 241.230469 143.847656 240.027344 144.253906 C 238.835938 144.6875 237.355469 145.117188 235.664062 145.628906 C 233.980469 146.167969 232.042969 146.640625 229.9375 147.195312 C 228.882812 147.46875 227.773438 147.703125 226.628906 147.96875 C 226.054688 148.097656 225.472656 148.226562 224.878906 148.359375 C 224.285156 148.472656 223.679688 148.589844 223.066406 148.707031 C 220.617188 149.199219 218.015625 149.625 215.316406 149.996094 C 213.960938 150.160156 212.589844 150.34375 211.195312 150.496094 C 209.796875 150.628906 208.382812 150.777344 206.953125 150.878906 C 205.523438 150.957031 204.082031 151.066406 202.632812 151.121094 C 201.90625 151.148438 201.183594 151.171875 200.457031 151.199219 C 199.730469 151.226562 199.003906 151.25 198.273438 151.246094 C 196.820312 151.242188 195.359375 151.257812 193.914062 151.207031 C 193.1875 151.1875 192.464844 151.171875 191.742188 151.152344 C 191.023438 151.117188 190.304688 151.082031 189.589844 151.046875 C 186.722656 150.917969 183.917969 150.621094 181.207031 150.316406 C 178.496094 149.992188 175.890625 149.59375 173.433594 149.125 C 172.816406 149.015625 172.210938 148.898438 171.617188 148.773438 C 171.023438 148.652344 170.4375 148.539062 169.863281 148.410156 C 168.71875 148.140625 167.609375 147.898438 166.554688 147.621094 C 164.4375 147.101562 162.519531 146.527344 160.835938 145.996094 C 159.144531 145.472656 157.695312 144.9375 156.507812 144.492188 C 155.320312 144.046875 154.40625 143.644531 153.785156 143.371094 C 153.164062 143.09375 152.835938 142.933594 152.835938 142.933594"/><path fill="#73D0C6" d="M 149.296875 234.851562 C 149.503906 236.59375 150.21875 238.597656 151.917969 239.054688 C 153.648438 239.515625 155.367188 237.988281 155.910156 236.285156 C 156.453125 234.582031 156.195312 232.742188 156.226562 230.957031 C 156.273438 227.765625 158.300781 226.492188 161.398438 227.058594 C 168.164062 228.300781 170.5625 233.15625 172.339844 239.070312 C 172.609375 239.96875 172.964844 240.871094 173.621094 241.535156 C 178.28125 246.21875 179.34375 234.523438 180.398438 232.746094 C 182.445312 229.304688 187.242188 230.472656 190.476562 230.808594 C 196.542969 231.445312 202.519531 231.480469 208.316406 233.621094 C 211.175781 234.679688 214.664062 235.882812 217.859375 235.105469 C 221.460938 234.230469 223.585938 230.441406 227.507812 230.3125 C 230.574219 230.214844 233.171875 232.40625 236.160156 232.839844 C 238.058594 233.117188 240.027344 232.921875 241.84375 232.296875 C 243.253906 231.808594 244.730469 230.277344 246.195312 230.125 C 248.675781 229.875 249.882812 234.820312 251.441406 236.058594 C 253.964844 238.066406 256.949219 236.5625 257.273438 233.480469 C 258.136719 225.347656 257.601562 216.789062 257.378906 208.472656 C 256.300781 210.8125 254.25 213.472656 250.355469 215.472656 C 249.457031 215.9375 248.519531 216.304688 247.558594 216.621094 C 242.863281 218.179688 234.285156 220.652344 222.9375 222.378906 C 215.144531 223.4375 206.695312 224.019531 197.871094 224.019531 C 183.957031 224.019531 170.976562 222.574219 160.007812 220.078125 C 158.46875 219.71875 156.921875 219.335938 155.363281 218.925781 C 153.722656 218.484375 152.140625 218.015625 150.613281 217.527344 C 148.964844 216.996094 147.367188 216.320312 145.859375 215.46875 C 147.015625 217.355469 148.085938 219.265625 148.660156 221.390625 C 149.835938 225.742188 148.769531 230.378906 149.296875 234.851562"/><path fill="#EC008C" d="M 262.351562 206.886719 L 262.324219 206.863281 C 261.28125 205.335938 260.007812 204.058594 258.558594 203.148438 C 258.558594 203.148438 258.550781 203.382812 258.507812 203.78125 C 258.359375 205.242188 258.328125 206.714844 258.402344 208.183594 C 258.425781 208.265625 258.441406 208.351562 258.445312 208.441406 C 258.484375 209.957031 258.535156 211.476562 258.585938 213.003906 C 258.8125 219.820312 259.046875 226.867188 258.335938 233.589844 C 258.0625 236.164062 256.175781 238.035156 253.847656 238.035156 C 252.78125 238.035156 251.714844 237.636719 250.773438 236.890625 C 250.039062 236.304688 249.464844 235.257812 248.855469 234.152344 C 248.167969 232.898438 247.21875 231.179688 246.375 231.179688 C 246.351562 231.179688 246.328125 231.179688 246.300781 231.183594 C 245.714844 231.246094 244.964844 231.730469 244.238281 232.195312 C 243.585938 232.617188 242.910156 233.050781 242.191406 233.300781 C 240.800781 233.78125 239.34375 234.027344 237.867188 234.027344 C 237.242188 234.027344 236.617188 233.980469 236.003906 233.890625 C 234.566406 233.683594 233.257812 233.125 231.988281 232.585938 C 230.523438 231.960938 229.144531 231.375 227.710938 231.375 C 227.652344 231.375 227.597656 231.375 227.542969 231.378906 C 225.699219 231.4375 224.25 232.507812 222.714844 233.640625 C 221.34375 234.652344 219.925781 235.699219 218.113281 236.140625 C 217.351562 236.324219 216.539062 236.417969 215.691406 236.417969 C 213.035156 236.417969 210.40625 235.53125 207.945312 234.621094 C 203.550781 232.992188 199.074219 232.621094 194.335938 232.226562 C 193.039062 232.117188 191.699219 232.007812 190.367188 231.867188 C 189.941406 231.824219 189.492188 231.765625 189.023438 231.703125 C 187.902344 231.558594 186.738281 231.410156 185.613281 231.410156 C 183.414062 231.410156 182.089844 231.988281 181.316406 233.289062 C 181.136719 233.589844 180.855469 234.710938 180.605469 235.695312 C 179.707031 239.261719 178.589844 243.695312 175.648438 243.695312 C 174.722656 243.695312 173.8125 243.234375 172.867188 242.285156 C 172.015625 241.429688 171.609375 240.335938 171.320312 239.375 C 169.46875 233.226562 167.128906 229.195312 161.203125 228.105469 C 160.792969 228.03125 160.40625 227.992188 160.046875 227.992188 C 158.222656 227.992188 157.320312 228.96875 157.289062 230.972656 C 157.28125 231.417969 157.296875 231.867188 157.304688 232.339844 C 157.34375 233.738281 157.378906 235.179688 156.925781 236.605469 C 156.355469 238.394531 154.671875 240.199219 152.554688 240.199219 C 152.246094 240.199219 151.9375 240.160156 151.640625 240.078125 C 149.804688 239.585938 148.566406 237.726562 148.242188 234.976562 C 148.011719 233.039062 148.070312 231.078125 148.125 229.1875 C 148.203125 226.550781 148.277344 224.058594 147.632812 221.671875 C 147.429688 220.929688 147.164062 220.210938 146.84375 219.492188 C 146.179688 218.011719 145.28125 216.648438 144.257812 215.394531 C 141.09375 211.523438 137.546875 208.5 137.1875 203.148438 C 133.007812 205.773438 130.289062 211.363281 130.289062 217.585938 L 130.289062 233.894531 C 130.289062 240.523438 133.378906 246.441406 138.03125 248.8125 C 152.570312 256.21875 173.988281 260.902344 197.871094 260.902344 C 221.757812 260.902344 243.175781 256.21875 257.714844 248.8125 C 262.367188 246.441406 265.457031 240.523438 265.457031 233.894531 L 265.457031 217.585938 C 265.457031 213.539062 264.300781 209.769531 262.351562 206.886719"/><g clip-path="url(#a)"><path fill="#73D0C6" d="M 309.921875 161.785156 C 309.921875 100.113281 259.65625 49.9375 197.871094 49.9375 C 136.089844 49.9375 85.828125 100.113281 85.828125 161.785156 C 85.828125 185.074219 93 206.726562 105.253906 224.652344 C 95.375 208.363281 89.691406 189.257812 89.691406 168.828125 C 89.691406 109.1875 138.125 60.839844 197.871094 60.839844 C 257.621094 60.839844 306.054688 109.1875 306.054688 168.828125 C 306.054688 189.257812 300.367188 208.363281 290.492188 224.652344 C 302.746094 206.726562 309.921875 185.074219 309.921875 161.785156"/></g><g clip-path="url(#b)"><path fill="#EC008C" d="M 307.136719 117.886719 C 312.769531 131.835938 315.628906 146.59375 315.628906 161.785156 C 315.628906 177.648438 312.515625 193.042969 306.375 207.539062 C 300.445312 221.535156 291.953125 234.105469 281.140625 244.902344 C 270.324219 255.695312 257.734375 264.171875 243.710938 270.089844 C 229.191406 276.21875 213.769531 279.328125 197.871094 279.328125 C 181.976562 279.328125 166.554688 276.21875 152.035156 270.089844 C 138.011719 264.171875 125.421875 255.695312 114.605469 244.902344 C 103.792969 234.105469 95.300781 221.535156 89.371094 207.539062 C 83.230469 193.042969 80.117188 177.648438 80.117188 161.785156 C 80.117188 146.59375 82.976562 131.835938 88.609375 117.886719 C 81.359375 133.359375 77.308594 150.621094 77.308594 168.828125 C 77.308594 235.292969 131.289062 289.171875 197.871094 289.171875 C 264.457031 289.171875 318.4375 235.292969 318.4375 168.828125 C 318.4375 150.621094 314.386719 133.359375 307.136719 117.886719"/></g><g fill="#03989E"><g><g><path d="M 12.011719 -0.25 L 12.054688 -0.0429688 C 12.890625 -0.125 13.644531 -0.335938 14.3125 -0.667969 C 14.898438 -0.960938 15.402344 -1.339844 15.859375 -1.800781 C 16.28125 -2.21875 16.613281 -2.679688 16.824219 -3.179688 C 16.992188 -3.683594 17.160156 -4.144531 17.324219 -4.5625 C 17.410156 -4.980469 17.492188 -5.355469 17.578125 -5.691406 C 17.578125 -6.027344 17.617188 -6.234375 17.703125 -6.320312 C 17.453125 -6.738281 17.117188 -6.988281 16.738281 -7.074219 C 16.320312 -7.074219 15.945312 -7.074219 15.609375 -7.074219 C 15.234375 -7.03125 14.941406 -6.863281 14.730469 -6.613281 C 14.480469 -6.277344 14.269531 -5.984375 14.144531 -5.734375 C 13.9375 -5.316406 13.769531 -4.980469 13.683594 -4.644531 C 13.515625 -4.226562 13.351562 -3.851562 13.183594 -3.558594 C 12.933594 -3.179688 12.679688 -2.886719 12.386719 -2.679688 C 12.011719 -2.386719 11.59375 -2.21875 11.132812 -2.21875 C 9.625 -2.761719 8.453125 -3.640625 7.53125 -4.855469 C 6.613281 -6.027344 5.902344 -7.40625 5.398438 -8.996094 C 4.894531 -10.503906 4.601562 -12.136719 4.519531 -13.894531 C 4.4375 -14.730469 4.4375 -15.609375 4.476562 -16.445312 C 4.476562 -17.285156 4.5625 -18.121094 4.6875 -18.957031 C 4.855469 -20.632812 5.1875 -22.179688 5.691406 -23.601562 C 6.152344 -25.027344 6.695312 -26.15625 7.367188 -27.035156 C 8.035156 -27.914062 8.746094 -28.457031 9.542969 -28.667969 C 10.335938 -28.875 11.132812 -28.625 11.96875 -27.871094 C 12.136719 -27.703125 12.261719 -27.578125 12.386719 -27.453125 C 12.511719 -27.285156 12.640625 -27.160156 12.765625 -27.035156 C 12.933594 -26.785156 13.140625 -26.574219 13.390625 -26.40625 C 13.558594 -26.238281 13.769531 -26.113281 14.019531 -26.03125 C 14.230469 -25.945312 14.523438 -25.90625 14.898438 -25.945312 C 15.484375 -25.945312 15.777344 -26.199219 15.777344 -26.699219 C 15.777344 -27.117188 15.566406 -27.621094 15.191406 -28.207031 C 14.773438 -28.710938 14.230469 -29.210938 13.558594 -29.714844 C 12.804688 -30.132812 12.054688 -30.382812 11.300781 -30.46875 C 11.007812 -30.46875 10.714844 -30.507812 10.421875 -30.507812 L 9.457031 -30.507812 C 8.746094 -30.507812 8.035156 -30.425781 7.367188 -30.257812 C 6.613281 -30.089844 5.941406 -29.796875 5.273438 -29.378906 C 4.601562 -28.960938 3.976562 -28.332031 3.433594 -27.539062 C 2.34375 -25.945312 1.507812 -24.148438 0.921875 -22.136719 C 0.292969 -20.046875 -0.0429688 -17.996094 -0.0429688 -15.988281 C -0.0820312 -13.894531 0.125 -11.84375 0.585938 -9.917969 C 1.046875 -7.910156 1.757812 -6.195312 2.761719 -4.730469 C 3.765625 -3.222656 5.023438 -2.050781 6.570312 -1.214844 C 8.117188 -0.375 9.917969 -0.0429688 12.011719 -0.25 Z M 12.011719 -0.25" transform="translate(104.943 335.249)"/></g></g></g><g fill="#03989E"><g><g><path d="M 1.089844 -2.761719 L 1.382812 -2.847656 C 2.050781 -2.761719 2.554688 -2.804688 2.886719 -2.972656 C 3.222656 -3.054688 3.472656 -3.304688 3.640625 -3.726562 C 3.808594 -4.144531 3.933594 -4.644531 3.976562 -5.316406 C 3.976562 -5.984375 4.058594 -6.863281 4.226562 -7.953125 L 7.574219 -7.953125 C 7.742188 -7.324219 7.867188 -6.695312 7.953125 -6.109375 C 7.953125 -5.773438 7.992188 -5.480469 7.992188 -5.230469 C 7.992188 -4.980469 8.035156 -4.6875 8.117188 -4.4375 C 8.203125 -3.851562 8.371094 -3.433594 8.703125 -3.140625 C 8.957031 -2.804688 9.289062 -2.636719 9.710938 -2.636719 C 10.042969 -2.554688 10.421875 -2.59375 10.839844 -2.761719 C 11.175781 -2.847656 11.46875 -3.011719 11.71875 -3.265625 C 11.71875 -3.347656 11.675781 -3.597656 11.632812 -3.933594 C 11.59375 -4.269531 11.550781 -4.6875 11.507812 -5.273438 C 11.339844 -6.359375 11.175781 -7.742188 11.007812 -9.417969 C 10.753906 -11.007812 10.503906 -12.722656 10.253906 -14.5625 C 10.085938 -15.441406 9.960938 -16.320312 9.792969 -17.160156 C 9.625 -17.996094 9.457031 -18.832031 9.289062 -19.667969 C 8.957031 -21.261719 8.621094 -22.597656 8.285156 -23.6875 C 7.953125 -24.773438 7.617188 -25.402344 7.367188 -25.527344 C 6.277344 -26.03125 5.398438 -26.324219 4.769531 -26.40625 C 4.101562 -26.449219 3.640625 -26.324219 3.304688 -26.03125 C 2.972656 -25.695312 2.71875 -25.320312 2.59375 -24.816406 C 2.511719 -24.566406 2.46875 -24.273438 2.425781 -24.023438 C 2.34375 -23.769531 2.300781 -23.476562 2.261719 -23.226562 C 2.09375 -22.136719 1.96875 -21.175781 1.839844 -20.253906 C 1.714844 -19.335938 1.632812 -18.496094 1.546875 -17.746094 C 1.464844 -16.992188 1.382812 -16.28125 1.296875 -15.652344 C 1.214844 -14.980469 1.128906 -14.394531 1.089844 -13.894531 C 1.003906 -13.351562 0.960938 -12.847656 0.921875 -12.429688 C 0.878906 -11.96875 0.835938 -11.550781 0.796875 -11.175781 C 0.710938 -10.421875 0.628906 -9.710938 0.542969 -9.039062 L 0.292969 -7.03125 L 0.0820312 -5.902344 C 0 -5.480469 -0.0820312 -5.023438 -0.167969 -4.5625 C -0.335938 -3.890625 -0.292969 -3.472656 -0.125 -3.222656 C 0.0429688 -2.972656 0.417969 -2.804688 1.089844 -2.761719 Z M 4.519531 -10.546875 L 4.601562 -10.589844 C 4.5625 -10.714844 4.5625 -10.882812 4.5625 -11.132812 L 4.5625 -11.96875 C 4.5625 -12.597656 4.601562 -13.308594 4.6875 -14.0625 C 4.730469 -14.4375 4.769531 -14.816406 4.855469 -15.191406 C 4.894531 -15.527344 4.9375 -15.902344 5.023438 -16.320312 C 5.105469 -16.992188 5.316406 -17.617188 5.609375 -18.121094 C 5.648438 -17.871094 5.691406 -17.617188 5.734375 -17.453125 C 5.734375 -17.285156 5.773438 -17.117188 5.816406 -16.992188 C 5.816406 -16.738281 5.859375 -16.53125 5.941406 -16.363281 C 5.941406 -16.238281 5.984375 -16.027344 6.066406 -15.777344 C 6.066406 -15.652344 6.109375 -15.527344 6.109375 -15.402344 C 6.109375 -15.234375 6.152344 -15.066406 6.234375 -14.898438 C 6.277344 -14.6875 6.320312 -14.480469 6.359375 -14.230469 L 6.527344 -13.351562 C 6.613281 -12.679688 6.78125 -11.800781 7.03125 -10.714844 C 6.527344 -10.546875 6.109375 -10.460938 5.734375 -10.460938 C 5.480469 -10.460938 5.273438 -10.460938 5.105469 -10.460938 C 4.894531 -10.460938 4.6875 -10.503906 4.519531 -10.546875 Z M 4.519531 -10.546875" transform="translate(133.023 335.249)"/></g></g></g><g fill="#03989E"><g><g><path d="M 2.59375 -2.425781 L 2.679688 -2.886719 C 3.390625 -2.804688 3.890625 -2.886719 4.183594 -3.054688 C 4.476562 -3.222656 4.644531 -3.558594 4.6875 -4.101562 C 4.6875 -4.601562 4.644531 -5.398438 4.5625 -6.488281 C 4.4375 -7.492188 4.3125 -8.914062 4.183594 -10.714844 C 4.183594 -10.921875 4.144531 -11.089844 4.144531 -11.257812 C 4.058594 -11.425781 4.183594 -11.59375 4.519531 -11.761719 C 5.1875 -10.671875 5.816406 -9.710938 6.402344 -8.871094 C 6.945312 -8.035156 7.449219 -7.28125 7.867188 -6.652344 C 8.703125 -5.398438 9.417969 -4.476562 10.003906 -3.890625 C 10.589844 -3.304688 11.132812 -3.011719 11.632812 -3.011719 C 12.09375 -3.011719 12.679688 -3.179688 13.433594 -3.597656 C 13.433594 -3.683594 13.476562 -3.851562 13.476562 -4.101562 C 13.476562 -4.269531 13.390625 -4.519531 13.222656 -4.855469 C 13.058594 -5.1875 12.804688 -5.648438 12.472656 -6.234375 C 12.304688 -6.527344 12.09375 -6.863281 11.84375 -7.28125 C 11.59375 -7.699219 11.300781 -8.160156 10.964844 -8.703125 C 10.210938 -9.875 9.582031 -10.839844 9.082031 -11.59375 C 8.832031 -11.925781 8.578125 -12.261719 8.371094 -12.554688 C 8.117188 -12.847656 7.910156 -13.097656 7.742188 -13.351562 C 7.53125 -13.558594 7.324219 -13.769531 7.15625 -13.976562 C 6.988281 -14.144531 6.820312 -14.355469 6.652344 -14.523438 L 5.523438 -15.652344 C 5.816406 -16.070312 6.109375 -16.53125 6.359375 -16.949219 C 6.613281 -17.367188 6.90625 -17.785156 7.199219 -18.203125 C 7.449219 -18.625 7.742188 -19.042969 7.992188 -19.460938 C 8.246094 -19.878906 8.539062 -20.253906 8.832031 -20.675781 C 9.417969 -21.511719 10.042969 -22.304688 10.714844 -23.058594 C 11.382812 -23.8125 12.011719 -24.648438 12.597656 -25.570312 C 11.925781 -25.820312 11.507812 -25.988281 11.339844 -26.074219 C 11.089844 -26.074219 10.796875 -26.074219 10.460938 -26.074219 C 10.085938 -26.03125 9.625 -25.738281 9.082031 -25.234375 C 8.496094 -24.734375 7.953125 -24.148438 7.449219 -23.476562 C 7.15625 -23.144531 6.90625 -22.808594 6.652344 -22.472656 C 6.402344 -22.136719 6.152344 -21.804688 5.941406 -21.511719 C 5.691406 -21.175781 5.523438 -20.925781 5.355469 -20.675781 L 4.9375 -20.046875 C 4.855469 -19.921875 4.8125 -19.796875 4.769531 -19.710938 C 4.6875 -19.628906 4.644531 -19.503906 4.601562 -19.375 C 4.519531 -19.125 4.3125 -18.957031 4.019531 -18.917969 C 3.851562 -19.042969 3.765625 -19.417969 3.765625 -20.089844 C 3.726562 -20.421875 3.683594 -20.757812 3.683594 -21.132812 C 3.640625 -21.46875 3.597656 -21.84375 3.558594 -22.265625 C 3.472656 -22.640625 3.433594 -23.015625 3.390625 -23.394531 C 3.304688 -23.730469 3.265625 -24.105469 3.222656 -24.441406 C 3.054688 -25.109375 2.847656 -25.527344 2.59375 -25.652344 C 1.882812 -25.988281 1.171875 -26.03125 0.417969 -25.695312 C 0.0820312 -25.527344 -0.0429688 -25.277344 -0.0429688 -24.941406 L -0.0429688 -24.316406 C -0.0429688 -24.105469 -0.0429688 -23.894531 0 -23.6875 C 0.0429688 -22.890625 0.0820312 -22.179688 0.125 -21.554688 C 0.125 -20.882812 0.167969 -20.296875 0.210938 -19.796875 C 0.210938 -19.25 0.25 -18.75 0.25 -18.246094 C 0.25 -17.746094 0.292969 -17.285156 0.335938 -16.824219 C 0.335938 -15.902344 0.375 -14.898438 0.460938 -13.808594 C 0.460938 -12.722656 0.503906 -11.339844 0.585938 -9.667969 C 0.585938 -9.207031 0.628906 -8.746094 0.628906 -8.328125 C 0.628906 -7.910156 0.667969 -7.492188 0.710938 -7.074219 C 0.753906 -6.234375 0.753906 -5.355469 0.710938 -4.476562 L 0.710938 -3.976562 C 0.710938 -3.808594 0.710938 -3.683594 0.753906 -3.558594 C 0.753906 -3.304688 0.835938 -3.097656 1.003906 -2.929688 C 1.128906 -2.761719 1.296875 -2.636719 1.546875 -2.554688 C 1.800781 -2.46875 2.132812 -2.425781 2.59375 -2.425781 Z M 2.59375 -2.425781" transform="translate(156.123 335.249)"/></g></g></g><g fill="#03989E"><g><g><path d="M 7.113281 -2.761719 L 7.28125 -2.847656 C 7.367188 -2.847656 7.492188 -2.929688 7.660156 -3.097656 C 7.742188 -3.179688 7.867188 -3.265625 8.035156 -3.390625 C 7.824219 -3.683594 7.574219 -3.890625 7.28125 -4.058594 C 6.945312 -4.183594 6.652344 -4.269531 6.359375 -4.3125 C 6.195312 -4.3125 6.027344 -4.351562 5.859375 -4.351562 L 5.355469 -4.351562 C 5.023438 -4.351562 4.6875 -4.394531 4.351562 -4.5625 L 4.3125 -13.976562 C 4.769531 -14.019531 5.1875 -14.0625 5.566406 -14.101562 C 5.902344 -14.101562 6.234375 -14.144531 6.570312 -14.1875 C 6.863281 -14.1875 7.113281 -14.230469 7.367188 -14.269531 C 7.574219 -14.269531 7.785156 -14.3125 7.953125 -14.394531 C 8.246094 -14.480469 8.453125 -14.5625 8.621094 -14.730469 C 8.703125 -14.816406 8.789062 -14.980469 8.789062 -15.234375 C 8.621094 -15.402344 8.410156 -15.566406 8.160156 -15.652344 C 7.953125 -15.695312 7.660156 -15.734375 7.28125 -15.820312 C 7.113281 -15.820312 6.90625 -15.859375 6.695312 -15.859375 L 6.066406 -15.859375 C 5.816406 -15.859375 5.566406 -15.859375 5.273438 -15.902344 C 4.980469 -15.902344 4.6875 -15.945312 4.351562 -16.027344 C 4.269531 -16.363281 4.226562 -16.738281 4.226562 -17.160156 C 4.183594 -17.535156 4.144531 -17.953125 4.144531 -18.371094 C 4.101562 -18.789062 4.058594 -19.167969 4.058594 -19.585938 C 4.058594 -20.003906 4.058594 -20.382812 4.058594 -20.800781 L 4.058594 -22.933594 C 4.058594 -23.226562 4.058594 -23.519531 4.058594 -23.769531 C 4.058594 -24.023438 4.101562 -24.230469 4.144531 -24.398438 L 5.230469 -24.398438 C 5.316406 -24.398438 5.441406 -24.398438 5.609375 -24.441406 C 6.359375 -24.523438 6.90625 -24.648438 7.15625 -24.816406 C 7.40625 -24.984375 7.492188 -25.152344 7.40625 -25.320312 C 7.324219 -25.488281 7.113281 -25.652344 6.820312 -25.820312 C 6.570312 -25.945312 6.277344 -26.03125 5.941406 -26.113281 C 5.1875 -26.199219 4.5625 -26.28125 3.976562 -26.324219 C 3.390625 -26.367188 2.929688 -26.40625 2.554688 -26.40625 C 1.757812 -26.40625 1.171875 -26.28125 0.796875 -26.074219 C 0.375 -25.820312 0.167969 -25.445312 0.0820312 -24.941406 C 0 -24.355469 -0.0429688 -23.644531 -0.0429688 -22.808594 C -0.125 -19.628906 -0.0820312 -16.53125 0.0820312 -13.515625 C 0.167969 -10.421875 0.375 -7.324219 0.710938 -4.226562 C 0.796875 -3.390625 1.171875 -2.929688 1.839844 -2.847656 C 2.261719 -2.761719 2.71875 -2.71875 3.140625 -2.679688 C 3.558594 -2.59375 4.019531 -2.554688 4.476562 -2.511719 C 5.316406 -2.425781 6.195312 -2.511719 7.113281 -2.761719 Z M 7.113281 -2.761719" transform="translate(180.101 335.249)"/></g></g></g><g fill="#03989E"><g><g><path d="M 4.351562 -2.21875 L 4.519531 -2.34375 C 4.058594 -3.011719 3.808594 -3.640625 3.765625 -4.183594 C 3.683594 -4.6875 3.640625 -5.023438 3.640625 -5.148438 C 3.558594 -5.566406 3.390625 -5.902344 3.179688 -6.152344 C 2.929688 -6.320312 2.59375 -6.445312 2.175781 -6.527344 C 1.839844 -6.527344 1.464844 -6.527344 1.046875 -6.445312 C 0.667969 -6.359375 0.335938 -6.109375 0.0429688 -5.734375 C -0.0429688 -4.394531 0.210938 -3.304688 0.710938 -2.511719 C 1.214844 -1.675781 1.882812 -1.046875 2.71875 -0.628906 C 3.558594 -0.167969 4.476562 0.0820312 5.480469 0.0820312 C 6.488281 0.125 7.449219 -0.0429688 8.410156 -0.417969 C 9.332031 -0.753906 10.210938 -1.296875 10.964844 -2.050781 C 11.71875 -2.761719 12.21875 -3.683594 12.554688 -4.769531 C 12.804688 -5.859375 12.804688 -7.113281 12.554688 -8.539062 C 12.21875 -9.960938 11.507812 -11.550781 10.421875 -13.308594 C 10.042969 -13.851562 9.667969 -14.394531 9.332031 -14.941406 C 8.996094 -15.484375 8.621094 -16.027344 8.285156 -16.613281 L 6.152344 -19.878906 C 5.734375 -20.507812 5.398438 -21.175781 5.1875 -21.929688 C 4.9375 -22.722656 4.769531 -23.519531 4.6875 -24.355469 C 4.601562 -25.195312 4.644531 -25.945312 4.8125 -26.660156 C 4.980469 -27.328125 5.316406 -27.871094 5.816406 -28.289062 C 6.527344 -28.125 7.074219 -27.871094 7.449219 -27.496094 C 7.785156 -27.078125 8.035156 -26.53125 8.203125 -25.90625 C 8.285156 -25.402344 8.328125 -24.984375 8.328125 -24.566406 L 8.328125 -23.4375 C 8.328125 -23.101562 8.410156 -22.851562 8.578125 -22.683594 C 8.746094 -22.515625 9.039062 -22.429688 9.457031 -22.429688 C 10.042969 -22.347656 10.546875 -22.515625 10.882812 -22.851562 C 11.214844 -23.183594 11.425781 -23.601562 11.507812 -24.105469 C 11.59375 -24.609375 11.59375 -25.152344 11.507812 -25.820312 C 11.425781 -26.113281 11.382812 -26.40625 11.300781 -26.699219 C 11.214844 -26.992188 11.132812 -27.285156 11.046875 -27.621094 C 10.964844 -27.832031 10.714844 -28.082031 10.378906 -28.375 C 9.960938 -28.710938 9.5 -28.960938 8.996094 -29.210938 C 8.453125 -29.460938 7.824219 -29.671875 7.15625 -29.839844 C 6.402344 -30.007812 5.734375 -30.046875 5.105469 -30.046875 C 3.933594 -29.964844 3.054688 -29.589844 2.386719 -28.917969 C 1.714844 -28.164062 1.253906 -27.328125 1.003906 -26.367188 C 0.753906 -25.359375 0.710938 -24.273438 0.878906 -23.144531 C 1.046875 -22.011719 1.382812 -20.96875 1.96875 -20.046875 C 2.71875 -18.625 3.433594 -17.453125 4.101562 -16.53125 C 4.6875 -15.527344 5.230469 -14.6875 5.734375 -14.019531 C 5.941406 -13.644531 6.152344 -13.308594 6.359375 -13.015625 C 6.527344 -12.679688 6.738281 -12.386719 6.90625 -12.136719 C 7.199219 -11.632812 7.492188 -11.046875 7.785156 -10.421875 C 8.035156 -9.792969 8.246094 -9.164062 8.410156 -8.496094 C 8.578125 -7.742188 8.746094 -6.90625 8.914062 -5.984375 C 9.039062 -5.023438 8.957031 -4.226562 8.621094 -3.597656 C 8.285156 -2.929688 7.824219 -2.425781 7.324219 -2.09375 C 6.738281 -1.757812 6.195312 -1.589844 5.648438 -1.589844 C 5.0625 -1.589844 4.601562 -1.800781 4.351562 -2.21875 Z M 4.351562 -2.21875" transform="translate(209.855 335.249)"/></g></g></g><g fill="#03989E"><g><g><path d="M 11.300781 -2.300781 L 11.507812 -2.46875 C 12.09375 -2.46875 12.511719 -2.636719 12.765625 -2.929688 C 12.972656 -3.179688 13.058594 -3.558594 13.015625 -4.144531 C 12.933594 -6.027344 12.890625 -7.742188 12.847656 -9.332031 C 12.765625 -10.882812 12.722656 -12.304688 12.679688 -13.601562 C 12.597656 -14.855469 12.554688 -16.027344 12.554688 -17.074219 C 12.511719 -18.121094 12.472656 -19.082031 12.472656 -19.921875 C 12.429688 -21.554688 12.386719 -22.808594 12.347656 -23.730469 C 12.304688 -24.566406 12.21875 -25.234375 12.09375 -25.652344 C 11.925781 -26.074219 11.761719 -26.324219 11.59375 -26.40625 C 11.425781 -26.449219 11.175781 -26.492188 10.839844 -26.574219 C 10.460938 -26.574219 10.128906 -26.574219 9.792969 -26.574219 C 9.417969 -26.492188 9.082031 -26.324219 8.832031 -26.074219 C 8.664062 -25.738281 8.578125 -25.277344 8.578125 -24.691406 C 8.539062 -24.355469 8.539062 -24.023438 8.539062 -23.6875 L 8.539062 -22.558594 C 8.539062 -22.136719 8.539062 -21.761719 8.539062 -21.34375 C 8.539062 -20.925781 8.578125 -20.464844 8.621094 -20.046875 C 8.621094 -19.585938 8.664062 -19.167969 8.664062 -18.789062 C 8.664062 -18.371094 8.703125 -17.996094 8.703125 -17.617188 L 8.703125 -16.574219 C 8.703125 -16.238281 8.664062 -15.945312 8.664062 -15.695312 C 8.578125 -15.109375 8.496094 -14.773438 8.410156 -14.6875 C 7.742188 -14.648438 7.074219 -14.5625 6.359375 -14.4375 C 5.648438 -14.3125 4.9375 -14.3125 4.183594 -14.4375 C 4.101562 -14.980469 4.058594 -15.527344 4.058594 -16.070312 C 4.058594 -16.574219 4.019531 -17.117188 4.019531 -17.617188 C 3.976562 -18.121094 3.976562 -18.582031 3.976562 -19.082031 L 3.976562 -20.507812 C 3.976562 -20.96875 3.933594 -21.425781 3.933594 -21.84375 C 3.933594 -22.265625 3.890625 -22.722656 3.890625 -23.144531 C 3.808594 -23.980469 3.726562 -24.816406 3.640625 -25.613281 C 3.597656 -25.945312 3.390625 -26.199219 3.054688 -26.367188 C 2.679688 -26.53125 2.300781 -26.574219 1.925781 -26.574219 C 1.464844 -26.492188 1.089844 -26.367188 0.796875 -26.15625 C 0.460938 -25.90625 0.25 -25.527344 0.167969 -25.027344 C 0.167969 -24.984375 0.125 -24.441406 0.0429688 -23.351562 C -0.0429688 -22.765625 -0.0820312 -22.136719 -0.0820312 -21.425781 C -0.0820312 -20.675781 -0.125 -19.878906 -0.125 -18.957031 C -0.167969 -18.039062 -0.167969 -17.03125 -0.167969 -15.988281 C -0.167969 -14.941406 -0.125 -13.808594 -0.0429688 -12.640625 C 0.0429688 -10.210938 0.210938 -7.699219 0.460938 -5.023438 C 0.460938 -4.601562 0.585938 -4.3125 0.796875 -4.144531 C 0.960938 -3.933594 1.214844 -3.808594 1.632812 -3.808594 C 2.425781 -3.640625 3.011719 -3.683594 3.390625 -3.851562 C 3.726562 -4.019531 3.976562 -4.269531 4.144531 -4.6875 C 4.226562 -5.023438 4.269531 -5.480469 4.269531 -6.066406 C 4.226562 -6.320312 4.183594 -6.613281 4.183594 -6.90625 C 4.183594 -7.199219 4.144531 -7.492188 4.101562 -7.824219 C 4.019531 -8.410156 3.976562 -9.039062 3.976562 -9.710938 C 3.976562 -10.378906 4.058594 -10.964844 4.269531 -11.46875 L 8.703125 -11.46875 L 8.871094 -10.796875 C 8.871094 -9.835938 8.914062 -8.996094 8.914062 -8.246094 L 8.914062 -6.320312 C 8.914062 -5.734375 8.914062 -5.273438 8.914062 -4.855469 C 8.914062 -4.4375 8.957031 -4.101562 8.996094 -3.851562 C 8.996094 -3.265625 9.125 -2.929688 9.332031 -2.761719 C 9.5 -2.59375 9.75 -2.46875 10.128906 -2.386719 C 10.546875 -2.300781 10.964844 -2.261719 11.300781 -2.300781 Z M 11.300781 -2.300781" transform="translate(233.08 335.249)"/></g></g></g><g fill="#03989E"><g><g><path d="M 5.1875 -2.761719 L 5.105469 -2.929688 C 6.277344 -2.679688 7.324219 -2.761719 8.160156 -3.097656 C 9.039062 -3.433594 9.792969 -3.933594 10.421875 -4.644531 C 11.007812 -5.316406 11.507812 -6.195312 11.925781 -7.28125 C 12.304688 -8.328125 12.597656 -9.417969 12.804688 -10.589844 C 12.972656 -11.761719 13.097656 -12.972656 13.183594 -14.230469 C 13.183594 -15.484375 13.183594 -16.699219 13.183594 -17.910156 C 13.140625 -18.289062 13.097656 -18.707031 13.058594 -19.125 C 13.015625 -19.542969 12.972656 -19.960938 12.890625 -20.421875 C 12.722656 -21.261719 12.472656 -22.054688 12.136719 -22.808594 C 11.800781 -23.476562 11.382812 -24.0625 10.796875 -24.609375 C 10.253906 -25.066406 9.582031 -25.320312 8.789062 -25.402344 C 8.410156 -25.402344 8.078125 -25.488281 7.824219 -25.652344 C 7.492188 -25.820312 7.15625 -25.945312 6.820312 -26.03125 C 6.445312 -26.113281 6.027344 -26.113281 5.523438 -26.03125 C 5.023438 -25.945312 4.4375 -25.695312 3.726562 -25.277344 C 2.59375 -24.523438 1.839844 -23.519531 1.507812 -22.265625 C 0.796875 -19.878906 0.335938 -17.617188 0.167969 -15.484375 C -0.0820312 -13.222656 -0.0429688 -11.214844 0.292969 -9.457031 C 0.542969 -7.617188 1.089844 -6.109375 1.925781 -4.9375 C 2.679688 -3.726562 3.765625 -3.011719 5.1875 -2.761719 Z M 6.402344 -4.476562 L 6.527344 -4.644531 C 5.691406 -5.355469 5.105469 -6.320312 4.6875 -7.53125 C 4.226562 -8.789062 3.933594 -10.085938 3.851562 -11.425781 C 3.765625 -12.09375 3.726562 -12.804688 3.726562 -13.476562 C 3.683594 -14.144531 3.683594 -14.855469 3.765625 -15.609375 C 3.808594 -16.320312 3.851562 -16.992188 3.933594 -17.660156 C 3.976562 -18.289062 4.058594 -18.917969 4.183594 -19.503906 C 4.351562 -20.589844 4.601562 -21.59375 4.894531 -22.472656 C 5.148438 -23.226562 5.355469 -23.6875 5.609375 -23.855469 C 6.613281 -23.8125 7.40625 -23.308594 7.992188 -22.390625 C 8.578125 -21.46875 8.996094 -20.296875 9.25 -18.917969 C 9.5 -17.578125 9.582031 -16.070312 9.542969 -14.394531 C 9.5 -13.558594 9.457031 -12.804688 9.375 -12.054688 C 9.289062 -11.300781 9.207031 -10.546875 9.082031 -9.835938 C 8.832031 -8.453125 8.453125 -7.238281 7.992188 -6.195312 C 7.492188 -5.1875 6.988281 -4.601562 6.402344 -4.476562 Z M 6.402344 -4.476562" transform="translate(256.557 335.249)"/></g></g></g><g fill="#03989E"><g><g><path d="M 1.675781 -2.886719 L 1.839844 -2.972656 C 2.34375 -2.886719 2.847656 -2.886719 3.347656 -2.972656 C 3.683594 -2.972656 3.976562 -3.097656 4.183594 -3.304688 C 4.3125 -3.433594 4.394531 -3.765625 4.476562 -4.269531 C 4.476562 -4.6875 4.476562 -5.398438 4.476562 -6.320312 C 4.4375 -6.78125 4.394531 -7.324219 4.394531 -7.910156 C 4.394531 -8.496094 4.394531 -9.207031 4.394531 -10.003906 C 4.476562 -10.003906 4.5625 -10.042969 4.6875 -10.128906 C 4.769531 -10.167969 4.894531 -10.210938 4.980469 -10.253906 C 6.488281 -10.921875 7.785156 -11.84375 8.789062 -13.015625 C 9.792969 -14.144531 10.503906 -15.316406 10.921875 -16.574219 C 11.339844 -17.828125 11.46875 -19.042969 11.300781 -20.296875 C 11.132812 -21.511719 10.714844 -22.597656 10.042969 -23.519531 C 9.375 -24.398438 8.453125 -25.066406 7.28125 -25.570312 C 6.109375 -26.03125 4.6875 -26.113281 3.054688 -25.820312 C 2.679688 -25.738281 2.34375 -25.695312 2.09375 -25.652344 C 1.839844 -25.570312 1.589844 -25.527344 1.382812 -25.488281 C 0.960938 -25.402344 0.667969 -25.277344 0.460938 -25.109375 C 0.210938 -24.941406 0.0820312 -24.691406 0.0820312 -24.355469 C 0.0429688 -24.1875 0 -23.980469 0 -23.730469 C 0 -23.476562 0 -23.183594 0 -22.890625 L 0 -20.546875 C 0 -20.046875 -0.0429688 -19.542969 -0.0429688 -18.957031 C -0.0429688 -18.371094 -0.0820312 -17.746094 -0.0820312 -17.074219 C -0.25 -12.804688 -0.125 -8.621094 0.292969 -4.4375 C 0.335938 -3.890625 0.460938 -3.515625 0.667969 -3.347656 C 0.878906 -3.097656 1.214844 -2.972656 1.675781 -2.886719 Z M 4.226562 -12.640625 L 4.3125 -12.804688 C 4.144531 -12.890625 4.058594 -13.015625 4.058594 -13.183594 C 3.976562 -13.351562 3.976562 -13.515625 3.976562 -13.726562 L 3.976562 -16.574219 C 3.976562 -16.949219 3.933594 -17.367188 3.933594 -17.871094 C 3.933594 -18.332031 3.890625 -18.875 3.890625 -19.460938 C 3.808594 -20.632812 3.726562 -22.097656 3.640625 -23.8125 C 3.597656 -24.148438 3.683594 -24.355469 3.933594 -24.480469 C 4.183594 -24.566406 4.476562 -24.566406 4.8125 -24.480469 C 5.105469 -24.355469 5.441406 -24.105469 5.816406 -23.769531 C 6.109375 -23.4375 6.359375 -22.976562 6.613281 -22.304688 C 7.15625 -20.421875 7.28125 -18.664062 6.945312 -17.03125 C 6.613281 -15.359375 5.691406 -13.894531 4.226562 -12.640625 Z M 4.226562 -12.640625" transform="translate(280.243 335.249)"/></g></g></g></svg>